# xmcd CD database file
#
# Track frame offsets:
#	150
#	30894
#	47337
#	71507
#	94395
#	117816
#	141252
#	162020
#	175894
#	195524
#	210468
#	233629
#	254716
#	274465
#	295942
#
# Disc length: 4240 seconds
#
# Revision: 0
# Processed by: cddbd v1.5.2PL0 Copyright (c) Steve Scherf et al.
# Submitted via: CDex 1.51
#
DISCID=d4108e0f
DTITLE=Royal Society Jazz Orchestra - Deja Vu?
DYEAR=2007
DGENRE=Jazz
TTITLE0=Ashkenaz
TTITLE1=Hetch-Hetchy
TTITLE2=Redwood
TTITLE3=When LuLu Does That Zulu Dance
TTITLE4=Just the Tip of the Iceburg
TTITLE5=Tequila Mocking Bird
TTITLE6=Lin's Lament
TTITLE7=Eureka!
TTITLE8=Try, Try Again
TTITLE9=The Obligatory Polka
TTITLE10=Deja Vu?
TTITLE11=Do What You Can
TTITLE12=Wa-Wo-Na Waltz
TTITLE13=How?
TTITLE14=Rover Got Run'd Over
EXTD=YEAR: 2007
EXTT0=
EXTT1=
EXTT2=
EXTT3=
EXTT4=
EXTT5=
EXTT6=
EXTT7=
EXTT8=
EXTT9=
EXTT10=
EXTT11=
EXTT12=
EXTT13=
EXTT14=
PLAYORDER=
